<?xml version="1.0" encoding="UTF-8" standalone="no"?>
<svg xmlns="http://www.w3.org/2000/svg" width="192" height="192" viewBox="0 0 192 192" fill="none">
  <rect width="192" height="192" rx="48" fill="#0d6efd"/>
  <path d="M58 48C50.268 48 44 54.268 44 62V130C44 137.732 50.268 144 58 144H134C141.732 144 148 137.732 148 130V62C148 54.268 141.732 48 134 48H58ZM134 56C137.3 56 140 58.7 140 62V85.787L123.213 69L102 90.213L77.787 66L52 91.787V62C52 58.7 54.7 56 58 56H134ZM96 64C88.268 64 82 70.268 82 78C82 85.732 88.268 92 96 92C103.732 92 110 85.732 110 78C110 70.268 103.732 64 96 64ZM71.213 74L102 104.787L140 142.787V130C140 130 139.996 129.609 139.961 129L121.787 110.826L102 91.039L71.213 121.826L52 102.613V122.826L71.213 142.039H60C56.7 142.039 53.5 139.35 53.5 136.039L53.487 105.213L71.213 74Z" fill="white"/>
</svg>