<?xml version="1.0" encoding="UTF-8" standalone="no"?>
<svg xmlns="http://www.w3.org/2000/svg" width="512" height="512" viewBox="0 0 512 512" fill="none">
  <rect width="512" height="512" rx="128" fill="#0d6efd"/>
  <path d="M154.667 128C134.048 128 117.333 144.715 117.333 165.333V346.667C117.333 367.285 134.048 384 154.667 384H357.333C377.952 384 394.667 367.285 394.667 346.667V165.333C394.667 144.715 377.952 128 357.333 128H154.667ZM357.333 149.333C366.133 149.333 373.333 156.533 373.333 165.333V229.333L328.567 184L272 240.567L207.433 176L138.667 244.767V165.333C138.667 156.533 145.867 149.333 154.667 149.333H357.333ZM256 170.667C235.381 170.667 218.667 187.381 218.667 208C218.667 228.619 235.381 245.333 256 245.333C276.619 245.333 293.333 228.619 293.333 208C293.333 187.381 276.619 170.667 256 170.667ZM189.9 197.333L272 279.433L373.333 380.767V346.667C373.333 346.667 373.323 345.621 373.229 344.067L324.767 295.605L272 242.838L189.9 324.938L138.667 273.705V327.571L189.9 378.805H160C151.2 378.805 142.667 371.605 142.667 362.805L142.633 280.633L189.9 197.333Z" fill="white"/>
</svg>